# xmcd
#
# Track frame offsets: 
#        150
#        19238
#        41511
#        59926
#        78229
#        95857
#        115806
#        128953
#        144952
#        163260
#        179871
#        197740
#        222094
#        239777
#        255679
#        266094
#        283676
#        302564
#        321228
#        336851
#
# Disc length: 4741 seconds
#
# Revision: 0
# Processed by: cddbd v1.5.2PL0 Copyright (c) Steve Scherf et al.
# Submitted via: ExactAudioCopy v0.99pb4
#
DISCID=41128314
DTITLE=Various Artist - prevue promo 1131A-2
DYEAR=2004
DGENRE=pop
TTITLE0=Marjorie Fair - Waves
TTITLE1=Musiq - Whoknows
TTITLE2=Seal - Love's Divine
TTITLE3=Martina McBride - This One's For The Girls
TTITLE4=Hoobastank - Reason, The
TTITLE5=Blue October - Inner Glow( Edit)
TTITLE6=Katy Rose - Overdrive
TTITLE7=Sarah Connor - Bounce(Lyric )
TTITLE8=Tamia and Freck The Billionaire - More(Lyric - Main Version wi
TTITLE8=th Rap)
TTITLE9=Air - Cherry Blossom Girl
TTITLE10=Robben Ford - Badge
TTITLE11=Bruce Cockburn - Put It In Your Heart
TTITLE12=Star Spangles, The - I Don't Wanna Be Crazy Anymore
TTITLE13=Boxing Day - Luckiest Man In The World
TTITLE14=Steriogram - Walkie Talkie Man
TTITLE15=Radiohead - Myxomatosis
TTITLE16=Mars Volta, The - Televators
TTITLE17=V Shape Mind - Glitches
TTITLE18=Mushroomhead - Crazy
TTITLE19=Trapt - Echo
EXTD=
EXTT0=
EXTT1=
EXTT2=
EXTT3=
EXTT4=
EXTT5=
EXTT6=
EXTT7=
EXTT8=
EXTT9=
EXTT10=
EXTT11=
EXTT12=
EXTT13=
EXTT14=
EXTT15=
EXTT16=
EXTT17=
EXTT18=
EXTT19=
PLAYORDER=
